<svg xmlns="http://www.w3.org/2000/svg" xmlns:xlink="http://www.w3.org/1999/xlink" width="288" height="161.641" viewBox="0 0 288 161.641">
  <defs>
    <clipPath id="clip-path">
      <rect id="Rectangle_21" data-name="Rectangle 21" width="288" height="161.641" fill="none"/>
    </clipPath>
  </defs>
  <g id="Groupe_32" data-name="Groupe 32" transform="translate(0 0)">
    <g id="Groupe_31" data-name="Groupe 31" transform="translate(0 0)" clip-path="url(#clip-path)">
      <path id="Tracé_27" data-name="Tracé 27" d="M86.179,1.789a18.988,18.988,0,0,1-6.9,2.31c-2.532.427-3.5,1.516-3.88,4.055a1.916,1.916,0,0,1-2.419,1.8,11.333,11.333,0,0,1-1.379-.384A24.877,24.877,0,0,0,49.765,13.12c2.555-.076,5.163-.513,7.656-.15,5.471.8,9.5,3.909,12.318,8.741-.573.46-1.04.864-1.535,1.231a26.664,26.664,0,0,1-14.815,5.136l.027.008a7.951,7.951,0,0,0,1.508.23,53.528,53.528,0,0,0,19.155-4.631,14,14,0,0,0,8.682-10.859c.289-1.588.066-3.263.3-4.865a8.277,8.277,0,0,1,5.959-6.917,7.4,7.4,0,0,0-2.846.745" transform="translate(47.307 0.993)" fill="#d32f1f"/>
      <path id="Tracé_28" data-name="Tracé 28" d="M49.736,7.267l.055-.033h-.014Z" transform="translate(47.28 6.878)" fill="#d32f1f"/>
      <path id="Tracé_29" data-name="Tracé 29" d="M56.231,4.871C54.2,5.214,53.414,6.09,53.112,8.13a1.542,1.542,0,0,1-1.945,1.445,9.129,9.129,0,0,1-1.11-.31A20.006,20.006,0,0,0,32.5,12.121,35.987,35.987,0,0,1,38.658,12a13.389,13.389,0,0,1,9.9,7.026c-.458.371-.837.694-1.233.989a21.444,21.444,0,0,1-11.908,4.127l.021.008a6.388,6.388,0,0,0,1.211.183,42.955,42.955,0,0,0,15.4-3.722,11.261,11.261,0,0,0,6.981-8.729c.23-1.276.053-2.622.244-3.909a6.655,6.655,0,0,1,4.791-5.561,5.94,5.94,0,0,0-2.288.6,15.247,15.247,0,0,1-5.542,1.857" transform="translate(30.895 2.297)" fill="#d32f1f"/>
      <path id="Tracé_30" data-name="Tracé 30" d="M32.511,7.391l-.033.027.043-.027Z" transform="translate(30.874 7.027)" fill="#d32f1f"/>
      <path id="Tracé_31" data-name="Tracé 31" d="M32.478,21.276l.045-.027h-.012Z" transform="translate(30.874 20.201)" fill="#d32f1f"/>
      <path id="Tracé_32" data-name="Tracé 32" d="M56.23,18.727c-2.034.343-2.817,1.219-3.119,3.259a1.542,1.542,0,0,1-1.945,1.445,9.485,9.485,0,0,1-1.11-.308A19.994,19.994,0,0,0,32.5,25.977a36.16,36.16,0,0,1,6.156-.119,13.4,13.4,0,0,1,9.9,7.026c-.458.371-.837.694-1.233.989A21.429,21.429,0,0,1,35.415,38l.021.008a6.236,6.236,0,0,0,1.211.183,42.915,42.915,0,0,0,15.4-3.722,11.258,11.258,0,0,0,6.981-8.727c.23-1.278.053-2.624.244-3.911a6.65,6.65,0,0,1,4.791-5.559,5.905,5.905,0,0,0-2.288.6,15.281,15.281,0,0,1-5.542,1.855" transform="translate(30.896 15.47)" fill="#d32f1f"/>
      <path id="Tracé_33" data-name="Tracé 33" d="M38.638,3.323A2.8,2.8,0,0,0,35.95,6.132a1.33,1.33,0,0,1-1.676,1.246,7.909,7.909,0,0,1-.956-.267A17.239,17.239,0,0,0,18.186,9.573h-.008l-.029.023.037-.023a31,31,0,0,1,5.306-.1,11.549,11.549,0,0,1,8.534,6.057c-.4.318-.722.6-1.065.85A18.464,18.464,0,0,1,20.7,19.937l.018.006a5.581,5.581,0,0,0,1.046.158,37.049,37.049,0,0,0,13.27-3.207A9.707,9.707,0,0,0,41.047,9.37c.2-1.1.045-2.261.211-3.371a5.737,5.737,0,0,1,4.129-4.793,5.109,5.109,0,0,0-1.972.517,13.146,13.146,0,0,1-4.777,1.6" transform="translate(17.253 1.148)" fill="#d32f1f"/>
      <path id="Tracé_34" data-name="Tracé 34" d="M18.148,28.188l.039-.023h-.01Z" transform="translate(17.252 26.775)" fill="#d32f1f"/>
      <path id="Tracé_35" data-name="Tracé 35" d="M38.62,25.991A2.8,2.8,0,0,0,35.932,28.8a1.329,1.329,0,0,1-1.676,1.246,7.909,7.909,0,0,1-.956-.267,17.246,17.246,0,0,0-15.133,2.462,31,31,0,0,1,5.306-.1,11.549,11.549,0,0,1,8.534,6.057c-.4.318-.722.6-1.065.85A18.464,18.464,0,0,1,20.68,42.6l.018.006a5.581,5.581,0,0,0,1.046.158,37.05,37.05,0,0,0,13.27-3.207,9.707,9.707,0,0,0,6.016-7.524c.2-1.1.045-2.261.211-3.371a5.737,5.737,0,0,1,4.129-4.793,5.109,5.109,0,0,0-1.972.517,13.146,13.146,0,0,1-4.777,1.6" transform="translate(17.271 22.697)" fill="#d32f1f"/>
      <path id="Tracé_36" data-name="Tracé 36" d="M5.653,3.6l-.023.02.033-.02Z" transform="translate(5.352 3.425)" fill="#d32f1f"/>
      <path id="Tracé_37" data-name="Tracé 37" d="M22.821,1.777a2.356,2.356,0,0,0-2.259,2.358,1.116,1.116,0,0,1-1.406,1.047,6.662,6.662,0,0,1-.8-.224A14.476,14.476,0,0,0,5.646,7.024,26.23,26.23,0,0,1,10.1,6.938a9.7,9.7,0,0,1,7.167,5.085c-.334.269-.6.5-.893.716a15.526,15.526,0,0,1-8.62,2.988l.018,0a4.559,4.559,0,0,0,.876.135,31.106,31.106,0,0,0,11.144-2.694,8.152,8.152,0,0,0,5.052-6.318c.168-.925.039-1.9.176-2.83A4.817,4.817,0,0,1,28.488,0a4.278,4.278,0,0,0-1.656.435,11.072,11.072,0,0,1-4.01,1.342" transform="translate(5.367 0.001)" fill="#d32f1f"/>
      <path id="Tracé_38" data-name="Tracé 38" d="M5.63,34.323l.033-.02h-.01Z" transform="translate(5.352 32.611)" fill="#d32f1f"/>
      <path id="Tracé_39" data-name="Tracé 39" d="M22.821,32.479a2.358,2.358,0,0,0-2.259,2.358,1.116,1.116,0,0,1-1.406,1.047,6.661,6.661,0,0,1-.8-.224A14.477,14.477,0,0,0,5.646,37.728,26.032,26.032,0,0,1,10.1,37.64a9.7,9.7,0,0,1,7.167,5.085c-.334.269-.6.5-.893.716a15.511,15.511,0,0,1-8.62,2.988l.018.006a4.555,4.555,0,0,0,.876.133,31.106,31.106,0,0,0,11.144-2.694,8.149,8.149,0,0,0,5.052-6.316c.168-.925.039-1.9.176-2.832A4.822,4.822,0,0,1,28.488,30.7a4.278,4.278,0,0,0-1.656.435,11.035,11.035,0,0,1-4.01,1.342" transform="translate(5.367 29.187)" fill="#d32f1f"/>
      <path id="Tracé_40" data-name="Tracé 40" d="M43.5,33.272H35.453V66.784H43.5c5.218,0,7.851-2.778,7.851-8.284V41.554c0-5.507-2.633-8.282-7.851-8.282M46.08,58.741c0,2.153-.909,3.254-2.68,3.254H40.72V38.059H43.4c1.771,0,2.68,1.1,2.68,3.256Z" transform="translate(33.702 31.63)" fill="#fff"/>
      <path id="Tracé_41" data-name="Tracé 41" d="M53.219,33.027c-5.171,0-8,3.062-8,8.425V59.07c0,5.36,2.824,8.425,8,8.425s7.994-3.064,7.994-8.425V41.452c0-5.362-2.824-8.425-7.994-8.425m2.727,26.378q0,3.3-2.727,3.3t-2.729-3.3V41.116q0-3.3,2.729-3.3t2.727,3.3Z" transform="translate(42.99 31.397)" fill="#fff"/>
      <path id="Tracé_42" data-name="Tracé 42" d="M65.769,59.219c0,2.153-.911,3.256-2.68,3.256s-2.682-1.1-2.682-3.256V33.272H55.14V58.837c0,5.409,2.729,8.425,7.851,8.425s7.851-3.016,7.851-8.425V33.272H65.769Z" transform="translate(52.417 31.63)" fill="#fff"/>
      <path id="Tracé_43" data-name="Tracé 43" d="M70.373,33.272H65.106V66.783H79.037V61.994H70.373Z" transform="translate(61.891 31.629)" fill="#fff"/>
      <path id="Tracé_44" data-name="Tracé 44" d="M81.253,33.027c-5.171,0-8,3.062-8,8.425V59.07c0,5.36,2.824,8.425,8,8.425s7.994-3.064,7.994-8.425V41.452c0-5.362-2.824-8.425-7.994-8.425m2.727,26.378q0,3.3-2.727,3.3t-2.729-3.3V41.116q0-3.3,2.729-3.3t2.727,3.3Z" transform="translate(69.639 31.397)" fill="#fff"/>
      <path id="Tracé_45" data-name="Tracé 45" d="M92.667,48.2a20.778,20.778,0,0,1-3.638-3.831,5.974,5.974,0,0,1-1.007-3.349c0-2.155.911-3.209,2.68-3.209s2.633,1.1,2.633,3.3v1.724h4.98V41.453c0-5.409-2.633-8.427-7.66-8.427-5.122,0-7.851,3.018-7.851,8.331A10.722,10.722,0,0,0,84.1,46.624a22.462,22.462,0,0,0,4.6,5.218,17.537,17.537,0,0,1,3.589,3.878,6.584,6.584,0,0,1,1.007,3.638c0,2.249-.909,3.351-2.776,3.351-1.82,0-2.731-1.1-2.731-3.256v-2.3H82.805v1.915c0,5.409,2.633,8.425,7.756,8.425,5.171,0,7.947-3.016,7.947-8.52a11.273,11.273,0,0,0-1.293-5.507A19.221,19.221,0,0,0,92.667,48.2" transform="translate(78.715 31.396)" fill="#fff"/>
      <rect id="Rectangle_16" data-name="Rectangle 16" width="3.911" height="24.896" transform="translate(187.352 73.517)" fill="#fff"/>
      <path id="Tracé_46" data-name="Tracé 46" d="M108.331,52.591l-3.948-14.9H99.548v24.9h3.486V44.412l4.836,18.172h3.948v-24.9h-3.486Z" transform="translate(94.631 35.828)" fill="#fff"/>
      <path id="Tracé_47" data-name="Tracé 47" d="M112.948,37.506c-3.735,0-5.762,2.241-5.762,6.117V57c0,3.876,2.027,6.117,5.762,6.117s5.76-2.241,5.76-6.117V53.653h-3.7v3.626c0,1.531-.64,2.276-1.956,2.276s-1.956-.745-1.956-2.276V43.373c0-1.527.642-2.31,1.956-2.31s1.956.782,1.956,2.31v2.883h3.7V43.623c0-3.876-2.027-6.117-5.76-6.117" transform="translate(101.892 35.655)" fill="#fff"/>
      <rect id="Rectangle_17" data-name="Rectangle 17" width="3.911" height="3.911" transform="translate(223.052 94.499)" fill="#fff"/>
      <path id="Tracé_48" data-name="Tracé 48" d="M135.341,66.964l12.767-10.338-2.877-1.342a.883.883,0,0,1-.46-1.073l2.522-7.76-7.352,1.56a.883.883,0,0,1-.991-.515l-1.424-3.353-5.739,6.16a.882.882,0,0,1-1.506-.774l2.768-14.271-4.438,2.563a.88.88,0,0,1-1.205-.314l-.029-.051-3.414-6.706V70.518a1.285,1.285,0,0,1,.749-.289,1.315,1.315,0,0,1,.277.018L136.642,72.3l-1.572-4.34a.883.883,0,0,1,.271-.991" transform="translate(117.841 29.233)" fill="#d32f1f"/>
      <path id="Tracé_49" data-name="Tracé 49" d="M123.963,110.2V94.443a30.436,30.436,0,0,0,0-60.873V17.809a46.2,46.2,0,0,1,0,92.395" transform="translate(117.841 16.93)" fill="#d32f1f"/>
      <path id="Tracé_50" data-name="Tracé 50" d="M166.038,37.73c-.142-1.847-.378-3.687-.692-5.51-.429-.862-.888-1.709-1.367-2.54a59.608,59.608,0,0,1,.979,8.12,57.089,57.089,0,0,1-40.994,57.709v3.41a46.058,46.058,0,0,0,11.669-1.5A63.489,63.489,0,0,0,152.1,82.971,64.024,64.024,0,0,0,166.038,37.73" transform="translate(117.841 28.215)" fill="#fff"/>
      <path id="Tracé_51" data-name="Tracé 51" d="M37.77,67.934h1.947c2.072,0,2.875.835,2.875,3.154v3.989a9.559,9.559,0,0,0,.279,2.627h2.442A8.07,8.07,0,0,1,45,75.078V71.213c0-2.567-.835-4.083-2.534-4.516v-.029q2.5-.79,2.5-4.36V60.981c0-3.371-1.451-4.916-4.884-4.916H35.359v21.64H37.77Zm0-9.675h2.257c1.824,0,2.536.864,2.536,2.967v1.547c0,2.1-.9,2.967-2.846,2.967H37.77Z" transform="translate(33.613 53.297)" fill="#fff"/>
      <path id="Tracé_52" data-name="Tracé 52" d="M50.586,75.51h-6.46V67.5h5.255V65.309H44.126v-7.05h6.46V56.065H41.713V77.7h8.873Z" transform="translate(39.653 53.297)" fill="#fff"/>
      <path id="Tracé_53" data-name="Tracé 53" d="M56.874,73V70.127H54.586v3.031c0,1.824-.958,2.811-2.473,2.811s-2.473-.987-2.473-2.811V60.914c0-1.824.96-2.815,2.473-2.815s2.473.991,2.473,2.815v2.38h2.288V61.068c0-3.246-1.732-5.163-4.822-5.163s-4.824,1.917-4.824,5.163V73c0,3.246,1.761,5.163,4.824,5.163,3.09,0,4.822-1.917,4.822-5.163" transform="translate(44.895 53.145)" fill="#fff"/>
      <path id="Tracé_54" data-name="Tracé 54" d="M60.643,71.089v3.989a9.559,9.559,0,0,0,.279,2.627h2.442a8.08,8.08,0,0,1-.308-2.627V71.213c0-2.567-.837-4.083-2.536-4.516v-.029q2.5-.79,2.5-4.36V60.981c0-3.371-1.451-4.916-4.884-4.916H53.41v21.64h2.411V67.934h1.947c2.072,0,2.875.835,2.875,3.154M55.821,58.259h2.257c1.824,0,2.536.864,2.536,2.967v1.547c0,2.1-.9,2.967-2.846,2.967H55.821Z" transform="translate(50.772 53.297)" fill="#fff"/>
      <path id="Tracé_55" data-name="Tracé 55" d="M69.472,72.666v-16.6h-2.35V72.851q0,2.97-2.5,2.969t-2.5-2.969V56.064H59.7v16.6c0,3.462,1.668,5.349,4.884,5.349,3.185,0,4.886-1.886,4.886-5.349" transform="translate(56.752 53.296)" fill="#fff"/>
      <path id="Tracé_56" data-name="Tracé 56" d="M69.493,77.7h2.413V58.259h3.833V56.065H65.66v2.194h3.833Z" transform="translate(62.417 53.297)" fill="#fff"/>
      <path id="Tracé_57" data-name="Tracé 57" d="M71.841,77.7h8.873V75.51H74.252V67.5h5.257V65.309H74.252v-7.05h6.462V56.065H71.841Z" transform="translate(68.293 53.297)" fill="#fff"/>
      <path id="Tracé_58" data-name="Tracé 58" d="M85.088,77.7,88.519,59.65V77.7h2.319V56.065H87.316L84.161,73.347,80.976,56.065H77.483V77.7h2.134V59.65L83.048,77.7Z" transform="translate(73.656 53.297)" fill="#fff"/>
      <path id="Tracé_59" data-name="Tracé 59" d="M94.709,75.51H88.246V67.5H93.5V65.309H88.246v-7.05h6.462V56.065H85.835V77.7h8.873Z" transform="translate(81.596 53.297)" fill="#fff"/>
      <path id="Tracé_60" data-name="Tracé 60" d="M93.671,60.112,99.145,77.7h2.5V56.065h-2.2V71.521L94.569,56.065H91.477V77.7h2.194Z" transform="translate(86.959 53.297)" fill="#fff"/>
      <path id="Tracé_61" data-name="Tracé 61" d="M101.554,77.7h2.411V58.259H107.8V56.065H97.721v2.194h3.833Z" transform="translate(92.895 53.297)" fill="#fff"/>
      <path id="Tracé_62" data-name="Tracé 62" d="M115.358,75.51H108.9V67.5h5.255V65.309H108.9v-7.05h6.46V56.065h-8.873V77.7h8.873Z" transform="translate(101.226 53.297)" fill="#fff"/>
      <path id="Tracé_63" data-name="Tracé 63" d="M111.635,56.065v2.194h3.833V77.7h2.413V58.259h3.833V56.065Z" transform="translate(106.122 53.297)" fill="#fff"/>
      <rect id="Rectangle_18" data-name="Rectangle 18" width="2.413" height="21.64" transform="translate(0 139.691)" fill="#fff"/>
      <path id="Tracé_64" data-name="Tracé 64" d="M9.421,88.894,6.235,71.614H2.742v21.64H4.876V75.2L8.307,93.254h2.04L13.778,75.2V93.254H16.1V71.614H12.575Z" transform="translate(2.606 68.078)" fill="#fff"/>
      <path id="Tracé_65" data-name="Tracé 65" d="M17.771,88.894l-3.183-17.28H11.094v21.64h2.132V75.2l3.433,18.055H18.7L22.131,75.2V93.254H24.45V71.614H20.925Z" transform="translate(10.546 68.078)" fill="#fff"/>
      <rect id="Rectangle_19" data-name="Rectangle 19" width="2.411" height="21.64" transform="translate(37.932 139.691)" fill="#fff"/>
      <path id="Tracé_66" data-name="Tracé 66" d="M26.946,71.455c-3.183,0-4.884,1.884-4.884,5.317V88.365c0,3.462,1.7,5.349,4.884,5.349,3.215,0,4.916-1.886,4.916-5.349V81.5H27.194V83.7h2.38v4.855c0,1.978-.866,2.967-2.565,2.967s-2.536-.989-2.536-2.967V76.618c0-1.98.835-2.969,2.536-2.969s2.565.989,2.565,2.969v1.915h2.288V76.772c0-3.462-1.7-5.317-4.916-5.317" transform="translate(20.972 67.927)" fill="#fff"/>
      <path id="Tracé_67" data-name="Tracé 67" d="M38.062,86.762c0-2.567-.835-4.083-2.534-4.516v-.029q2.5-.79,2.5-4.36V76.53c0-3.371-1.453-4.916-4.884-4.916h-4.73v21.64h2.413V83.483h1.947c2.072,0,2.875.835,2.875,3.154v3.989a9.569,9.569,0,0,0,.279,2.627h2.442a8.071,8.071,0,0,1-.31-2.627Zm-5.286-5.473H30.829V73.808h2.255c1.824,0,2.538.864,2.538,2.967V78.32c0,2.1-.9,2.969-2.846,2.969" transform="translate(27.013 68.078)" fill="#fff"/>
      <path id="Tracé_68" data-name="Tracé 68" d="M38.346,71.614l-4.018,21.64h2.257l.8-4.605H42.4l.806,4.605h2.442l-4.051-21.64Zm-.587,14.932,2.1-12.182,2.163,12.182Z" transform="translate(32.633 68.078)" fill="#fff"/>
      <path id="Tracé_69" data-name="Tracé 69" d="M39.811,73.808h3.833V93.254h2.413V73.808H49.89V71.614H39.811Z" transform="translate(37.845 68.078)" fill="#fff"/>
      <rect id="Rectangle_20" data-name="Rectangle 20" width="2.411" height="21.64" transform="translate(89.713 139.691)" fill="#fff"/>
      <path id="Tracé_70" data-name="Tracé 70" d="M53.554,71.455c-3.185,0-4.947,1.886-4.947,5.319V88.365c0,3.433,1.761,5.351,4.947,5.351,3.215,0,4.978-1.917,4.978-5.351V76.774c0-3.433-1.763-5.319-4.978-5.319m2.565,17.066c0,2.011-.864,3-2.565,3s-2.536-.989-2.536-3v-11.9c0-1.978.835-2.969,2.536-2.969s2.565.991,2.565,2.969Z" transform="translate(46.206 67.927)" fill="#fff"/>
      <path id="Tracé_71" data-name="Tracé 71" d="M63.049,87.071,58.164,71.614H55.072v21.64h2.194V75.661L62.74,93.254h2.5V71.614h-2.2Z" transform="translate(52.353 68.078)" fill="#fff"/>
      <path id="Tracé_72" data-name="Tracé 72" d="M67.918,71.614,63.9,93.254h2.255l.806-4.605h5.007l.806,4.605h2.442l-4.051-21.64Zm-.587,14.932,2.1-12.182L71.6,86.546Z" transform="translate(60.744 68.078)" fill="#fff"/>
      <path id="Tracé_73" data-name="Tracé 73" d="M78.024,88.4q0,2.967-2.5,2.967t-2.5-2.967V71.614H70.6v16.6c0,3.462,1.67,5.349,4.884,5.349,3.185,0,4.884-1.886,4.884-5.349v-16.6H78.024Z" transform="translate(67.117 68.078)" fill="#fff"/>
      <path id="Tracé_74" data-name="Tracé 74" d="M84.335,71.455c-3.094,0-4.824,1.917-4.824,5.163V88.552c0,3.246,1.761,5.161,4.824,5.161,3.092,0,4.822-1.915,4.822-5.161V85.677H86.869v3.029c0,1.826-.96,2.813-2.473,2.813s-2.473-.987-2.473-2.813V76.464c0-1.824.96-2.815,2.473-2.815s2.473.991,2.473,2.815v2.38h2.288V76.618c0-3.246-1.73-5.163-4.822-5.163" transform="translate(75.584 67.927)" fill="#fff"/>
      <path id="Tracé_75" data-name="Tracé 75" d="M89.2,71.614l-4.02,21.64h2.257l.806-4.605h5.007l.8,4.605H96.5L92.45,71.614Zm-.587,14.932,2.1-12.182,2.163,12.182Z" transform="translate(80.977 68.078)" fill="#fff"/>
      <path id="Tracé_76" data-name="Tracé 76" d="M99.991,87.071,95.107,71.614H92.015v21.64h2.194V75.661l5.473,17.593h2.5V71.614h-2.2Z" transform="translate(87.47 68.078)" fill="#fff"/>
      <path id="Tracé_77" data-name="Tracé 77" d="M102.279,71.614l-4.02,21.64h2.257l.806-4.605h5.007l.8,4.605h2.444l-4.051-21.64Zm-.587,14.932,2.1-12.182,2.163,12.182Z" transform="translate(93.406 68.078)" fill="#fff"/>
      <path id="Tracé_78" data-name="Tracé 78" d="M110.036,71.613h-4.947v21.64h4.947c3.248,0,4.886-1.761,4.886-5.255V76.87c0-3.5-1.639-5.257-4.886-5.257m2.473,16.479c0,2.1-.8,2.967-2.534,2.967H107.5V73.807h2.473c1.73,0,2.534.835,2.534,2.938Z" transform="translate(99.899 68.077)" fill="#fff"/>
      <path id="Tracé_79" data-name="Tracé 79" d="M115,71.614l-4.018,21.64h2.255l.806-4.605h5.007l.806,4.605H122.3l-4.051-21.64Zm-.587,14.932,2.1-12.182,2.163,12.182Z" transform="translate(105.505 68.078)" fill="#fff"/>
    </g>
  </g>
</svg>
