<svg id="Doulos_Logo" data-name="Doulos Logo" xmlns="http://www.w3.org/2000/svg" width="132.053" height="60.604" viewBox="0 0 132.053 60.604">
  <g id="Couleurs" transform="translate(-5.235 0)">
    <g id="Groupe_3" data-name="Groupe 3" transform="translate(0 0)">
      <path id="Tracé_1" data-name="Tracé 1" d="M67.123,1.4a9.052,9.052,0,0,1-3.287,1.1,1.928,1.928,0,0,0-1.849,1.933.913.913,0,0,1-1.153.856,5.4,5.4,0,0,1-.657-.183A11.859,11.859,0,0,0,49.765,6.8a21.332,21.332,0,0,1,3.65-.072A7.944,7.944,0,0,1,59.287,10.9c-.273.219-.5.412-.732.587a12.71,12.71,0,0,1-7.062,2.448l.013,0a3.79,3.79,0,0,0,.719.11,25.517,25.517,0,0,0,9.131-2.207A6.676,6.676,0,0,0,65.494,6.66c.138-.757.032-1.556.145-2.319a3.946,3.946,0,0,1,2.841-3.3,3.526,3.526,0,0,0-1.357.355" transform="translate(-3.491 -0.073)" fill="#d32f1f"/>
      <path id="Tracé_2" data-name="Tracé 2" d="M49.736,7.25l.026-.016h-.007Z" transform="translate(-3.489 -0.507)" fill="#d32f1f"/>
      <path id="Tracé_3" data-name="Tracé 3" d="M43.812,3.586a1.55,1.55,0,0,0-1.487,1.554.735.735,0,0,1-.927.689,4.351,4.351,0,0,1-.529-.148A9.537,9.537,0,0,0,32.5,7.042a17.155,17.155,0,0,1,2.936-.057,6.382,6.382,0,0,1,4.719,3.349c-.219.177-.4.331-.588.471a10.222,10.222,0,0,1-5.677,1.968l.01,0a3.045,3.045,0,0,0,.577.087,20.477,20.477,0,0,0,7.339-1.774,5.368,5.368,0,0,0,3.328-4.161c.11-.608.025-1.25.116-1.863a3.172,3.172,0,0,1,2.284-2.651,2.831,2.831,0,0,0-1.091.285,7.268,7.268,0,0,1-2.642.885" transform="translate(-2.28 -0.169)" fill="#d32f1f"/>
      <path id="Tracé_4" data-name="Tracé 4" d="M32.494,7.391l-.016.013.02-.013Z" transform="translate(-2.279 -0.518)" fill="#d32f1f"/>
      <path id="Tracé_5" data-name="Tracé 5" d="M32.478,21.262l.021-.013h-.006Z" transform="translate(-2.279 -1.49)" fill="#d32f1f"/>
      <path id="Tracé_6" data-name="Tracé 6" d="M43.813,17.443A1.55,1.55,0,0,0,42.326,19a.735.735,0,0,1-.927.689,4.522,4.522,0,0,1-.529-.147A9.531,9.531,0,0,0,32.5,20.9a17.237,17.237,0,0,1,2.935-.057,6.387,6.387,0,0,1,4.719,3.349c-.219.177-.4.331-.588.471a10.215,10.215,0,0,1-5.677,1.968l.01,0a2.973,2.973,0,0,0,.577.087,20.457,20.457,0,0,0,7.339-1.774,5.367,5.367,0,0,0,3.328-4.16c.11-.609.025-1.251.116-1.864a3.17,3.17,0,0,1,2.284-2.65,2.815,2.815,0,0,0-1.091.285,7.284,7.284,0,0,1-2.642.884" transform="translate(-2.28 -1.141)" fill="#d32f1f"/>
      <path id="Tracé_7" data-name="Tracé 7" d="M27.916,2.216a1.336,1.336,0,0,0-1.281,1.339.634.634,0,0,1-.8.594,3.771,3.771,0,0,1-.456-.127A8.218,8.218,0,0,0,18.167,5.2h0l-.014.011.018-.011A14.777,14.777,0,0,1,20.7,5.146a5.505,5.505,0,0,1,4.068,2.887c-.19.152-.344.285-.508.405a8.8,8.8,0,0,1-4.892,1.7l.008,0a2.661,2.661,0,0,0,.5.075A17.661,17.661,0,0,0,26.2,8.685,4.627,4.627,0,0,0,29.064,5.1c.095-.524.021-1.078.1-1.607a2.735,2.735,0,0,1,1.968-2.285,2.435,2.435,0,0,0-.94.246,6.267,6.267,0,0,1-2.277.762" transform="translate(-1.273 -0.084)" fill="#d32f1f"/>
      <path id="Tracé_8" data-name="Tracé 8" d="M18.148,28.176l.019-.011h0Z" transform="translate(-1.273 -1.975)" fill="#d32f1f"/>
      <path id="Tracé_9" data-name="Tracé 9" d="M27.917,24.884a1.336,1.336,0,0,0-1.281,1.339.633.633,0,0,1-.8.594,3.771,3.771,0,0,1-.456-.127,8.221,8.221,0,0,0-7.214,1.173,14.776,14.776,0,0,1,2.529-.049A5.505,5.505,0,0,1,24.765,30.7c-.19.152-.344.285-.508.405a8.8,8.8,0,0,1-4.892,1.7l.008,0a2.661,2.661,0,0,0,.5.075A17.661,17.661,0,0,0,26.2,31.353a4.627,4.627,0,0,0,2.868-3.586c.095-.524.021-1.078.1-1.607a2.735,2.735,0,0,1,1.968-2.285,2.436,2.436,0,0,0-.94.246,6.267,6.267,0,0,1-2.277.762" transform="translate(-1.275 -1.675)" fill="#d32f1f"/>
      <path id="Tracé_10" data-name="Tracé 10" d="M5.641,3.6l-.011.009L5.646,3.6Z" transform="translate(-0.395 -0.252)" fill="#d32f1f"/>
      <path id="Tracé_11" data-name="Tracé 11" d="M13.833.847a1.123,1.123,0,0,0-1.077,1.124.532.532,0,0,1-.67.5,3.176,3.176,0,0,1-.383-.107,6.9,6.9,0,0,0-6.057.985A12.5,12.5,0,0,1,7.77,3.307a4.622,4.622,0,0,1,3.416,2.424c-.159.128-.288.24-.426.341A7.4,7.4,0,0,1,6.651,7.5l.008,0a2.173,2.173,0,0,0,.418.064,14.828,14.828,0,0,0,5.312-1.284A3.886,3.886,0,0,0,14.8,3.267c.08-.441.019-.9.084-1.349A2.3,2.3,0,0,1,16.534,0a2.04,2.04,0,0,0-.789.207,5.278,5.278,0,0,1-1.912.64" transform="translate(-0.396 0)" fill="#d32f1f"/>
      <path id="Tracé_12" data-name="Tracé 12" d="M5.63,34.313l.016-.009h0Z" transform="translate(-0.395 -2.406)" fill="#d32f1f"/>
      <path id="Tracé_13" data-name="Tracé 13" d="M13.833,31.549a1.124,1.124,0,0,0-1.077,1.124.532.532,0,0,1-.67.5,3.176,3.176,0,0,1-.383-.107,6.9,6.9,0,0,0-6.057.986,12.409,12.409,0,0,1,2.124-.042,4.625,4.625,0,0,1,3.416,2.424c-.159.128-.288.24-.426.341A7.394,7.394,0,0,1,6.651,38.2l.008,0a2.171,2.171,0,0,0,.418.063,14.828,14.828,0,0,0,5.312-1.284A3.885,3.885,0,0,0,14.8,33.97c.08-.441.019-.906.084-1.35A2.3,2.3,0,0,1,16.534,30.7a2.04,2.04,0,0,0-.789.207,5.26,5.26,0,0,1-1.912.64" transform="translate(-0.396 -2.153)" fill="#d32f1f"/>
      <g id="Groupe_4" data-name="Groupe 4">
        <path id="Tracé_14" data-name="Tracé 14" d="M39.287,33.272H35.453V49.247h3.834c2.487,0,3.743-1.324,3.743-3.949V37.22c0-2.625-1.255-3.948-3.743-3.948m1.232,12.141c0,1.027-.433,1.551-1.278,1.551H37.964V35.554h1.278c.844,0,1.278.525,1.278,1.552Z" transform="translate(-2.487 -2.334)" fill="#122f48"/>
        <path id="Tracé_15" data-name="Tracé 15" d="M49.034,33.027c-2.465,0-3.811,1.46-3.811,4.016v8.4c0,2.555,1.346,4.016,3.811,4.016S52.845,48,52.845,45.441v-8.4c0-2.556-1.346-4.016-3.811-4.016m1.3,12.574q0,1.573-1.3,1.574t-1.3-1.574V36.883q0-1.575,1.3-1.574t1.3,1.574Z" transform="translate(-3.173 -2.317)" fill="#122f48"/>
        <path id="Tracé_16" data-name="Tracé 16" d="M60.207,45.641c0,1.027-.434,1.552-1.278,1.552s-1.279-.525-1.279-1.552V33.272H55.14V45.459c0,2.578,1.3,4.016,3.743,4.016s3.743-1.438,3.743-4.016V33.272H60.207Z" transform="translate(-3.868 -2.334)" fill="#122f48"/>
        <path id="Tracé_17" data-name="Tracé 17" d="M67.617,33.272H65.106V49.246h6.641V46.964h-4.13Z" transform="translate(-4.568 -2.334)" fill="#122f48"/>
        <path id="Tracé_18" data-name="Tracé 18" d="M77.068,33.027c-2.465,0-3.811,1.46-3.811,4.016v8.4c0,2.555,1.346,4.016,3.811,4.016S80.879,48,80.879,45.441v-8.4c0-2.556-1.346-4.016-3.811-4.016m1.3,12.574q0,1.573-1.3,1.574t-1.3-1.574V36.883q0-1.575,1.3-1.574t1.3,1.574Z" transform="translate(-5.139 -2.317)" fill="#122f48"/>
        <path id="Tracé_19" data-name="Tracé 19" d="M87.506,40.261a9.9,9.9,0,0,1-1.734-1.826,2.848,2.848,0,0,1-.48-1.6c0-1.027.434-1.53,1.278-1.53s1.255.524,1.255,1.574V37.7H90.2v-.662c0-2.578-1.255-4.017-3.651-4.017-2.442,0-3.743,1.438-3.743,3.971a5.111,5.111,0,0,0,.616,2.511A10.707,10.707,0,0,0,85.612,42a8.36,8.36,0,0,1,1.711,1.849,3.138,3.138,0,0,1,.48,1.734c0,1.072-.433,1.6-1.323,1.6-.868,0-1.3-.525-1.3-1.552v-1.1H82.805v.913c0,2.578,1.255,4.016,3.7,4.016,2.465,0,3.788-1.438,3.788-4.062a5.374,5.374,0,0,0-.616-2.625,9.163,9.163,0,0,0-2.167-2.51" transform="translate(-5.809 -2.317)" fill="#122f48"/>
        <rect id="Rectangle_2" data-name="Rectangle 2" width="1.864" height="11.868" transform="translate(89.31 35.045)" fill="#122f48"/>
        <path id="Tracé_20" data-name="Tracé 20" d="M103.735,44.793l-1.882-7.1H99.548V49.556h1.662V40.894l2.305,8.662H105.4V37.689h-1.662Z" transform="translate(-6.984 -2.644)" fill="#122f48"/>
        <path id="Tracé_21" data-name="Tracé 21" d="M109.933,37.506c-1.781,0-2.747,1.068-2.747,2.916V46.8c0,1.848.966,2.916,2.747,2.916s2.746-1.068,2.746-2.916V45.2h-1.763v1.729c0,.73-.3,1.085-.933,1.085s-.933-.355-.933-1.085V40.3c0-.728.306-1.1.933-1.1s.933.373.933,1.1v1.374h1.763V40.422c0-1.848-.966-2.916-2.746-2.916" transform="translate(-7.52 -2.631)" fill="#122f48"/>
        <rect id="Rectangle_3" data-name="Rectangle 3" width="1.864" height="1.864" transform="translate(106.328 45.047)" fill="#122f48"/>
      </g>
      <path id="Tracé_22" data-name="Tracé 22" d="M129.387,48.014l6.086-4.928-1.372-.64a.421.421,0,0,1-.219-.511l1.2-3.7-3.5.744a.421.421,0,0,1-.472-.245l-.679-1.6-2.736,2.936a.42.42,0,0,1-.718-.369l1.319-6.8-2.115,1.222a.419.419,0,0,1-.575-.15l-.014-.024-1.627-3.2V49.708a.612.612,0,0,1,.357-.138.626.626,0,0,1,.132.008l5.555.976-.749-2.069a.421.421,0,0,1,.129-.472" transform="translate(-8.697 -2.157)" fill="#d32f1f"/>
      <path id="Tracé_23" data-name="Tracé 23" d="M123.963,61.853V54.34a14.509,14.509,0,0,0,0-29.018V17.809a22.022,22.022,0,0,1,0,44.044" transform="translate(-8.697 -1.249)" fill="#d32f1f"/>
      <path id="Tracé_24" data-name="Tracé 24" d="M144.02,33.517c-.068-.881-.18-1.757-.33-2.627-.2-.411-.423-.815-.652-1.211a28.419,28.419,0,0,1,.467,3.871A27.214,27.214,0,0,1,123.963,61.06v1.625a21.955,21.955,0,0,0,5.562-.713,30.265,30.265,0,0,0,7.852-6.889,30.52,30.52,0,0,0,6.643-21.566" transform="translate(-8.697 -2.082)" fill="#fff"/>
    </g>
  </g>
</svg>
